#!OML:ASF H:\GeneralSubjects\Female5\Project 1\Capture day 1\Session 1\Female5.ASF
:FULLY-SPECIFIED
:DEGREES
283
root -23.775 15.5956 2.1115 345.106 -114.018 -339.176
lowerback 9.61827 2.00264 4.15733
upperback -8.28825 3.4972 2.6751
thorax -14.5446 1.28624 -0.0880961
lowerneck -17.1152 -0.0531163 0.169736
upperneck 37.23 -5.29226 7.97145
head 16.5746 -1.68842 2.30061
rclavicle -3.69615e-014 -3.94588e-014
rhumerus -50.3557 21.0627 -71.783
rradius 40.2513
rwrist -18.5176
rhand -26.1857 -18.9894
rfingers 7.12502
rthumb 0.366436 -48.9688
lclavicle -3.69615e-014 -3.94588e-014
lhumerus -53.3347 17.5253 59.2745
lradius 21.7976
lwrist -17.8216
lhand -26.6309 34.5087
lfingers 7.12502
lthumb -0.0635832 64.4884
rfemur 3.44261 16.0842 35.9943
rtibia 15.3936
rfoot -19.9639 -12.0171
rtoes -27.0077
lfemur -29.2686 -30.4382 1.06221
ltibia 18.5351
lfoot 708.903 -5.2907
ltoes -31.2029
284
root -24.0156 15.5837 2.20402 348.119 -115.212 -342.262
lowerback 9.64319 1.99537 3.39592
upperback -8.34605 3.34843 2.50116
thorax -14.6603 1.28214 0.173506
lowerneck -17.0993 -0.427016 -0.303875
upperneck 37.1425 -5.82541 8.1819
head 16.5846 -1.96782 2.37015
rclavicle 2.43884e-014 1.48592e-014
rhumerus -50.7102 20.7905 -72.0564
rradius 40.2703
rwrist -18.4614
rhand -26.3198 -18.9728
rfingers 7.12502
rthumb 0.236832 -48.9525
lclavicle 2.43884e-014 1.48592e-014
lhumerus -53.0529 17.1319 59.8253
lradius 21.9456
lwrist -17.0298
lhand -26.2235 35.2348
lfingers 7.12502
lthumb 0.329906 65.2143
rfemur 3.00025 16.5988 34.4842
rtibia 17.2624
rfoot -20.4742 -11.9046
rtoes -26.5069
lfemur -28.17 -29.0473 -1.59232
ltibia 19.3198
lfoot 708.809 -3.9376
ltoes -27.6485
285
root -24.2458 15.586 2.29545 350.932 -116.363 -345.091
lowerback 9.61694 1.86136 2.29341
upperback -8.38217 2.9897 2.54982
thorax -14.7503 1.23124 0.923252
lowerneck -17.1376 -0.76204 -0.801543
upperneck 37.0949 -6.17056 8.10839
head 16.6018 -2.20646 2.35449
rclavicle -4.13099e-016 -2.15309e-014
rhumerus -50.9464 20.9191 -72.2576
rradius 40.1995
rwrist -18.431
rhand -26.3267 -19.1869
rfingers 7.12502
rthumb 0.230214 -49.1665
lclavicle -4.13099e-016 -2.15309e-014
lhumerus -52.953 17.2044 60.4098
lradius 22.3092
lwrist -16.5125
lhand -25.9562 35.6809
lfingers 7.12502
lthumb 0.588015 65.6599
rfemur 2.44133 16.9341 32.8882
rtibia 18.9913
rfoot -20.8708 -11.9638
rtoes -25.4445
lfemur -27.1571 -27.0593 -4.45703
ltibia 20.0127
lfoot 709.388 -3.87977
ltoes -17.8449
286
root -24.4662 15.6016 2.38468 353.441 -117.509 -347.557
lowerback 9.57619 1.69 1.29565
upperback -8.4202 2.59363 2.5818
thorax -14.8157 1.15219 1.60733
lowerneck -17.2056 -1.13792 -1.30153
upperneck 37.0371 -6.55503 7.9855
head 16.6239 -2.46656 2.30884
rclavicle 3.2874e-014 5.83433e-014
rhumerus -51.2433 20.9549 -72.546
rradius 40.0434
rwrist -18.3085
rhand -26.2115 -19.5627
rfingers 7.12502
rthumb 0.34146 -49.5422
lclavicle 3.2874e-014 5.83433e-014
lhumerus -52.7329 17.2977 60.9843
lradius 22.831
lwrist -16.2294
lhand -25.8811 35.7874
lfingers 7.12502
lthumb 0.660553 65.7661
rfemur 1.84128 17.1066 31.326
rtibia 20.4765
rfoot -21.0949 -12.3021
rtoes -24.0192
lfemur -26.2085 -25.1314 -7.10566
ltibia 20.4375
lfoot 709.885 -4.10823
ltoes -10.749
287
root -24.6772 15.627 2.47085 355.376 -118.734 -349.395
lowerback 9.51498 1.49225 0.577937
upperback -8.42163 2.20881 2.64115
thorax -14.8021 1.05136 2.16407
lowerneck -17.3229 -1.53421 -1.81352
upperneck 36.961 -6.95266 7.84533
head 16.6517 -2.73272 2.2539
rclavicle 1.38155e-014 2.64384e-014
rhumerus -51.5505 20.9844 -72.9489
rradius 39.8313
rwrist -18.0847
rhand -26.0066 -19.9908
rfingers 7.12502
rthumb 0.539391 -49.9698
lclavicle 1.38155e-014 2.64384e-014
lhumerus -52.3092 17.3132 61.6316
lradius 23.4509
lwrist -15.9694
lhand -26.0357 35.6137
lfingers 7.12502
lthumb 0.511258 65.5929
rfemur 1.27715 17.1726 30.0322
rtibia 21.6562
rfoot -21.0815 -13.0931
rtoes -22.9091
lfemur -25.2387 -23.5497 -9.21959
ltibia 20.5029
lfoot 710.02 -4.51897
ltoes -6.34164
288
root -24.8805 15.66 2.55587 356.816 -120.063 -350.687
lowerback 9.51857 1.28109 0.161173
upperback -8.44141 1.85731 2.72582
thorax -14.834 0.934991 2.57312
lowerneck -17.4187 -1.92384 -2.38265
upperneck 36.8857 -7.3473 7.76583
head 16.6834 -2.9988 2.23595
rclavicle -7.85199e-014 -4.17448e-014
rhumerus -51.9818 21.1345 -73.5223
rradius 39.5963
rwrist -17.7763
rhand -25.8004 -20.3255
rfingers 7.12502
rthumb 0.738544 -50.304
lclavicle -7.85199e-014 -4.17448e-014
lhumerus -51.7965 17.179 62.3138
lradius 24.1512
lwrist -15.6441
lhand -26.3564 35.2933
lfingers 7.12502
lthumb 0.20152 65.2729
rfemur 0.786374 17.1343 29.0165
rtibia 22.4767
rfoot -20.8864 -14.299
rtoes -22.6507
lfemur -24.2117 -22.4195 -10.8165
ltibia 20.2365
lfoot 709.677 -4.97617
ltoes -4.00715
289
root -25.0775 15.6986 2.64044 357.899 -121.532 -351.586
lowerback 9.56842 1.07544 -0.0086725
upperback -8.46312 1.55485 2.82961
thorax -14.8869 0.816358 2.85437
lowerneck -17.4748 -2.2941 -3.00244
upperneck 36.7511 -7.72096 7.77852
head 16.6842 -3.25136 2.27061
rclavicle 4.95968e-014 1.25234e-014
rhumerus -52.5019 21.4494 -74.2415
rradius 39.3358
rwrist -17.4141
rhand -25.6706 -20.4282
rfingers 7.12502
rthumb 0.863865 -50.4062
lclavicle 4.95968e-014 1.25234e-014
lhumerus -51.2235 16.8853 63.0264
lradius 24.9735
lwrist -15.1619
lhand -26.7607 34.9488
lfingers 7.12502
lthumb -0.188957 64.9285
rfemur 0.37059 17.0251 28.238
rtibia 22.9552
rfoot -20.731 -15.6039
rtoes -22.9668
lfemur -23.1127 -21.7662 -11.9663
ltibia 19.7546
lfoot 708.827 -5.51708
ltoes -3.20393
290
root -25.2696 15.7415 2.72585 358.887 -123.15 -352.363
lowerback 9.69299 0.891055 -0.0800883
upperback -8.52424 1.29615 2.9293
thorax -15.0321 0.707697 3.06831
lowerneck -17.4383 -2.62213 -3.64878
upperneck 36.5388 -8.04819 7.8872
head 16.629 -3.47812 2.3608
rclavicle 4.91992e-014 1.15295e-014
rhumerus -53.1227 21.9223 -75.0533
rradius 39.0379
rwrist -16.9932
rhand -25.5859 -20.3106
rfingers 7.12502
rthumb 0.945713 -50.2883
lclavicle 4.91992e-014 1.15295e-014
lhumerus -50.7054 16.4763 63.6885
lradius 25.9454
lwrist -14.5604
lhand -27.172 34.6821
lfingers 7.12502
lthumb -0.586191 64.6611
rfemur 0.0126651 16.8711 27.5394
rtibia 23.1111
rfoot -20.9573 -16.5544
rtoes -22.7992
lfemur -21.9562 -21.1509 -13.0421
ltibia 19.1122
lfoot 707.884 -6.08882
ltoes -2.74364
291
root -25.457 15.786 2.81133 359.876 -124.945 -353.113
lowerback 9.83291 0.743593 -0.145855
upperback -8.60527 1.0867 3.02468
thorax -15.2129 0.621476 3.26575
lowerneck -17.3103 -2.89516 -4.31368
upperneck 36.2103 -8.31346 8.117
head 16.4988 -3.66666 2.51902
rclavicle -4.03036e-014 -1.98785e-015
rhumerus -53.7615 22.4828 -75.8476
rradius 38.698
rwrist -16.4797
rhand -25.4858 -20.0377
rfingers 7.12502
rthumb 1.04234 -50.0148
lclavicle -4.03036e-014 -1.98785e-015
lhumerus -50.2335 16.0385 64.25
lradius 27.0451
lwrist -13.8906
lhand -27.527 34.5496
lfingers 7.12502
lthumb -0.929072 64.5273
rfemur -0.340729 16.7492 26.8597
rtibia 23.0435
rfoot -21.4117 -17.6456
rtoes -21.5103
lfemur -20.7673 -20.5279 -14.0935
ltibia 18.3297
lfoot 706.854 -6.69793
ltoes -2.47536
292
root -25.6397 15.83 2.8955 360.889 -126.914 -353.877
lowerback 9.99282 0.63737 -0.27723
upperback -8.70945 0.920635 3.11743
thorax -15.4388 0.563226 3.49057
lowerneck -17.083 -3.10008 -4.96652
upperneck 35.7678 -8.50549 8.45782
head 16.2905 -3.80967 2.73704
rclavicle -3.98563e-014 -3.18055e-014
rhumerus -54.4062 23.0574 -76.5286
rradius 38.3364
rwrist -15.8376
rhand -25.3242 -19.678
rfingers 7.12502
rthumb 1.19849 -49.6544
lclavicle -3.98563e-014 -3.18055e-014
lhumerus -49.821 15.5838 64.689
lradius 28.2208
lwrist -13.1701
lhand -27.8426 34.5352
lfingers 7.12502
lthumb -1.23392 64.5113
rfemur -0.67902 16.7167 26.1757
rtibia 22.7655
rfoot -22.4094 -18.6336
rtoes -18.2973
lfemur -19.5406 -19.9322 -15.1428
ltibia 17.3957
lfoot 705.718 -7.32902
ltoes -2.13878
293
root -25.8174 15.8708 2.97621 361.866 -129.067 -354.592
lowerback 10.0963 0.576577 -0.473373
upperback -8.79163 0.804397 3.21531
thorax -15.6061 0.53563 3.74649
lowerneck -16.8203 -3.23377 -5.56453
upperneck 35.2243 -8.62132 8.88585
head 16.0236 -3.89961 2.99566
rclavicle 5.96354e-014 -1.63003e-014
rhumerus -54.9313 23.5466 -76.9853
rradius 37.9516
rwrist -15.0599
rhand -25.0645 -19.3427
rfingers 7.12502
rthumb 1.44931 -49.3175
lclavicle 5.96354e-014 -1.63003e-014
lhumerus -49.3786 15.0901 65.0368
lradius 29.4203
lwrist -12.3573
lhand -28.1538 34.6158
lfingers 7.12502
lthumb -1.53449 64.59
rfemur -1.00816 16.8322 25.5389
rtibia 22.3078
rfoot -23.9467 -19.6989
rtoes -13.2872
lfemur -18.2868 -19.331 -16.149
ltibia 16.3367
lfoot 704.474 -7.99166
ltoes -1.52065
294
root -25.9903 15.9076 3.05337 362.795 -131.358 -355.249
lowerback 10.1412 0.545764 -0.714065
upperback -8.85379 0.719233 3.30681
thorax -15.7137 0.52662 4.01243
lowerneck -16.5474 -3.29057 -6.08926
upperneck 34.6286 -8.66537 9.39304
head 15.7281 -3.93768 3.28624
rclavicle -1.30204e-014 -2.14687e-014
rhumerus -55.3087 23.9053 -77.1835
rradius 37.5746
rwrist -14.2014
rhand -24.7275 -19.0739
rfingers 7.12502
rthumb 1.77475 -49.0463
lclavicle -1.30204e-014 -2.14687e-014
lhumerus -48.9157 14.5318 65.2758
lradius 30.6218
lwrist -11.4246
lhand -28.4648 34.7763
lfingers 7.12502
lthumb -1.83484 64.7481
rfemur -1.32299 16.9804 24.9446
rtibia 21.5626
rfoot -25.54 -21.3078
rtoes -8.74907
lfemur -17.0275 -18.8578 -17.0999
ltibia 15.18
lfoot 703.03 -8.71575
ltoes -0.630789
295
root -26.1657 15.9461 3.13389 363.879 -133.612 -356.131
lowerback 10.1824 0.517814 -1.16382
upperback -8.8784 0.600159 3.35085
thorax -15.7725 0.523484 4.34942
lowerneck -16.2925 -3.40039 -6.64684
upperneck 33.9499 -8.74816 9.88578
head 15.4085 -3.99221 3.56398
rclavicle -1.98785e-014 -7.95139e-016
rhumerus -55.686 24.3587 -77.3201
rradius 37.3248
rwrist -13.15
rhand -24.3192 -18.8306
rfingers 7.12502
rthumb 2.16912 -48.7993
lclavicle -1.98785e-014 -7.95139e-016
lhumerus -48.4429 14.0522 65.3393
lradius 31.9325
lwrist -10.7174
lhand -28.454 35.1348
lfingers 7.12502
lthumb -1.82444 65.1067
rfemur -1.68959 17.0604 23.9589
rtibia 21.1414
rfoot -28.5116 -22.1835
rtoes 0.904983
lfemur -15.7607 -18.6517 -18.3241
ltibia 13.9065
lfoot 701.514 -9.41781
ltoes 0.384239
296
root -26.3271 15.9687 3.19617 364.116 -136.325 -355.981
lowerback 10.1674 0.571425 -1.13382
upperback -8.86647 0.690613 3.59262
thorax -15.7639 0.572562 4.58946
lowerneck -16.1067 -3.29402 -6.89524
upperneck 33.4002 -8.63582 10.388
head 15.1334 -3.92523 3.82675
rclavicle -3.3197e-014 -4.69132e-014
rhumerus -55.7014 24.4789 -76.9718
rradius 36.9933
rwrist -12.3726
rhand -24.006 -18.7159
rfingers 7.12502
rthumb 2.47154 -48.6813
lclavicle -3.3197e-014 -4.69132e-014
lhumerus -47.944 12.9868 65.5555
lradius 33.0958
lwrist -9.12836
lhand -28.8963 35.4886
lfingers 7.12502
lthumb -2.25158 65.4565
rfemur -2.00109 17.5326 24.1425
rtibia 20.247
rfoot -32.0142 -22.2409
rtoes 6.51687
lfemur -14.4537 -18.2508 -18.4966
ltibia 12.5926
lfoot 699.612 -10.3
ltoes 2.00307
